<mxfile host="app.diagrams.net" modified="2023-05-12T14:50:53.087Z" agent="Mozilla/5.0 (X11; Linux x86_64) AppleWebKit/537.36 (KHTML, like Gecko) Chrome/113.0.0.0 Safari/537.36" version="21.2.3" etag="Lz21X4QiLdCIYVsw92aq" type="github">
  <diagram name="Page-1" id="zAZNzLNbU-jhwKCreSeN">
    <mxGraphModel>
      <root>
        <mxCell id="0" />
        <mxCell id="1" parent="0" />
      </root>
    </mxGraphModel>
  </diagram>
</mxfile>
